# xmcd
#
# Track frame offsets: 
#        150
#        13816
#        26098
#        38555
#        48428
#        59413
#        69747
#        83313
#        95748
#        107533
#        121752
#        131821
#        145114
#        156711
#        167589
#        179377
#        190297
#        203217
#        213501
#        226144
#        237830
#        250628
#        260438
#        275200
#        287302
#
# Disc length: 3992 seconds
#
# Revision: 2
# Processed by: cddbd v1.5.2PL0 Copyright (c) Steve Scherf et al.
# Submitted via: ExactAudioCopyFreeDBPlugin 1.0
#
DISCID=660f9619
DTITLE=Various Artist - Sun Records:  The Ultimate Blues Collection -
DTITLE=75 Essential Recordings
DYEAR=2003
DGENRE=Blues
TTITLE0=Joe Hill Louis - She May Be Yours
TTITLE1=Willie Nix - Seems Like a Million Years
TTITLE2=Charlie Booker - Walked All Night
TTITLE3=Houston Stokes - Baby's Gone and Left Me
TTITLE4=Rufus Thomas Jr. - Walking in the Rain
TTITLE5=Walter Thornton - Off the Wall
TTITLE6=Little Juniors Blue Flames - Fussin' and Fightin'
TTITLE7=Rufus Thomas Jr. - Save That Money
TTITLE8=Earl Hooker - Razorback
TTITLE9=Boyd Gilmore - Beleive Me I'll Settle Down
TTITLE10=Mose Vinson - My Love Has Gone
TTITLE11=Doctor Ross - Chicago Breakdown
TTITLE12=Little Junior's Blue Flames - Sittin' at the Bar
TTITLE13=Kenneth Banks - High
TTITLE14=Hot Shot Love - Harmonica Jam
TTITLE15=James Cotton - My Baby
TTITLE16=Billy "Red" Love - Gee I Wish
TTITLE17=Billy "The Kid" Emerson - Satisfied
TTITLE18=James Cotton - Hold Me in Your Arms
TTITLE19=Doctor Ross - Juke Box Boogie
TTITLE20=Billy "The Kid" Emerson - Move Baby Move
TTITLE21=Sammy Lewis - So Long Baby Goodbye
TTITLE22=Eddie Snow - Bring Your Love Back Home
TTITLE23=Frank Ballard - Trouble Down the Road
TTITLE24=Frank Frost - Everything's Alright
EXTD=ID3G: 8
EXTT0=
EXTT1=
EXTT2=
EXTT3=
EXTT4=
EXTT5=
EXTT6=
EXTT7=
EXTT8=
EXTT9=
EXTT10=
EXTT11=
EXTT12=
EXTT13=
EXTT14=
EXTT15=
EXTT16=
EXTT17=
EXTT18=
EXTT19=
EXTT20=
EXTT21=
EXTT22=
EXTT23=
EXTT24=
PLAYORDER=
